<svg width="42" height="42" viewBox="0 0 42 42" fill="none" xmlns="http://www.w3.org/2000/svg">
<path d="M29.75 31.5C27.8075 31.5 26.25 33.0575 26.25 35C26.25 35.9283 26.6187 36.8185 27.2751 37.4749C27.9315 38.1313 28.8217 38.5 29.75 38.5C30.6783 38.5 31.5685 38.1313 32.2249 37.4749C32.8813 36.8185 33.25 35.9283 33.25 35C33.25 34.0717 32.8813 33.1815 32.2249 32.5251C31.5685 31.8687 30.6783 31.5 29.75 31.5ZM1.75 3.5V7H5.25L11.55 20.2825L9.17 24.57C8.9075 25.06 8.75 25.6375 8.75 26.25C8.75 27.1783 9.11875 28.0685 9.77513 28.7249C10.4315 29.3813 11.3217 29.75 12.25 29.75H33.25V26.25H12.985C12.869 26.25 12.7577 26.2039 12.6756 26.1219C12.5936 26.0398 12.5475 25.9285 12.5475 25.8125C12.5475 25.725 12.565 25.655 12.6 25.6025L14.175 22.75H27.2125C28.525 22.75 29.68 22.015 30.275 20.9475L36.54 9.625C36.6625 9.345 36.75 9.0475 36.75 8.75C36.75 8.28587 36.5656 7.84075 36.2374 7.51256C35.9092 7.18437 35.4641 7 35 7H9.1175L7.4725 3.5M12.25 31.5C10.3075 31.5 8.75 33.0575 8.75 35C8.75 35.9283 9.11875 36.8185 9.77513 37.4749C10.4315 38.1313 11.3217 38.5 12.25 38.5C13.1783 38.5 14.0685 38.1313 14.7249 37.4749C15.3813 36.8185 15.75 35.9283 15.75 35C15.75 34.0717 15.3813 33.1815 14.7249 32.5251C14.0685 31.8687 13.1783 31.5 12.25 31.5Z" fill="#111111"/>
</svg>
