<svg width="35" height="35" viewBox="0 0 35 35" fill="none" xmlns="http://www.w3.org/2000/svg">
<path d="M10.1989 21.77C9.77293 21.9441 9.3388 22.0974 8.89802 22.2294C8.32659 22.4054 7.7445 22.5447 7.15531 22.6465C6.68181 22.7361 6.19964 22.7716 5.71812 22.7522C5.18095 22.7237 4.65577 22.5826 4.17666 22.338C3.53064 22.0128 3.02331 21.4659 2.7475 20.7973C2.51474 20.1097 2.48687 19.3692 2.66729 18.666C2.92209 17.5929 3.37999 16.5786 4.01625 15.6778C4.43406 15.0602 4.90437 14.4805 5.38125 13.9074C5.84791 13.3464 6.3209 12.7908 6.80021 12.2405C6.49195 12.7493 6.23429 13.2871 6.03093 13.8462C5.86119 14.2952 5.7447 14.7627 5.68385 15.2389C5.60697 15.7799 5.67282 16.3317 5.87489 16.8394C6.15443 17.4572 6.66683 17.9394 7.30041 18.1811C7.74265 18.3413 8.21131 18.416 8.68146 18.4013C9.41373 18.372 10.1407 18.2642 10.85 18.0797C11.6449 17.8967 12.4359 17.6976 13.2227 17.4825C18.025 16.1759 32.4479 12.2938 32.4479 12.2938C32.4479 12.2938 15.7835 19.4542 10.1989 21.77V21.77Z" stroke="white" stroke-width="0.729167" stroke-linecap="round" stroke-linejoin="round"/>
</svg>
