<svg width="30" height="30" viewBox="0 0 30 30" fill="none" xmlns="http://www.w3.org/2000/svg">
<g clip-path="url(#clip0_204_56)">
<path d="M29.9998 9.75L8.05227 19.095C6.23227 19.865 4.70352 20.2513 3.46727 20.2513C2.06727 20.2513 1.05102 19.7612 0.421017 18.78C0.0247673 18.15 -0.0914827 17.3512 0.0710173 16.3825C0.233517 15.4137 0.666017 14.3825 1.36602 13.285C1.94977 12.3975 2.90602 11.2312 4.23727 9.785C3.78572 10.4958 3.45461 11.2763 3.25727 12.095C2.90727 13.5887 3.22227 14.685 4.20227 15.385C4.66852 15.7112 5.30977 15.875 6.12727 15.875C6.77977 15.875 7.51477 15.77 8.33227 15.56L29.9998 9.75Z" fill="white"/>
</g>
<defs>
<clipPath id="clip0_204_56">
<rect width="30" height="30" fill="white"/>
</clipPath>
</defs>
</svg>
