<svg width="80" height="80" viewBox="0 0 80 80" fill="none" xmlns="http://www.w3.org/2000/svg">
<path d="M79.9999 26L21.4732 50.92C16.6199 52.9733 12.5432 54.0033 9.24653 54.0033C5.5132 54.0033 2.8032 52.6967 1.1232 50.08C0.0665344 48.4 -0.243466 46.27 0.189868 43.6867C0.623201 41.1033 1.77653 38.3533 3.6432 35.4267C5.19987 33.06 7.74987 29.95 11.2999 26.0933C10.0958 27.9889 9.21277 30.0702 8.68653 32.2533C7.7532 36.2367 8.5932 39.16 11.2065 41.0267C12.4499 41.8967 14.1599 42.3333 16.3399 42.3333C18.0799 42.3333 20.0399 42.0533 22.2199 41.4933L79.9999 26Z" fill="#111111"/>
</svg>
