<svg width="33" height="33" viewBox="0 0 33 33" fill="none" xmlns="http://www.w3.org/2000/svg">
<path d="M24.75 8.25H22C22 5.21125 19.5387 2.75 16.5 2.75C13.4612 2.75 11 5.21125 11 8.25H8.25C6.7375 8.25 5.5 9.4875 5.5 11V27.5C5.5 29.0125 6.7375 30.25 8.25 30.25H24.75C26.2625 30.25 27.5 29.0125 27.5 27.5V11C27.5 9.4875 26.2625 8.25 24.75 8.25ZM13.75 13.75C13.75 14.5063 13.1312 15.125 12.375 15.125C11.6188 15.125 11 14.5063 11 13.75V11H13.75V13.75ZM16.5 5.5C18.0125 5.5 19.25 6.7375 19.25 8.25H13.75C13.75 6.7375 14.9875 5.5 16.5 5.5ZM22 13.75C22 14.5063 21.3813 15.125 20.625 15.125C19.8687 15.125 19.25 14.5063 19.25 13.75V11H22V13.75Z" fill="white"/>
</svg>
